<svg xmlns="http://www.w3.org/2000/svg" viewBox="0 0 500 500"><g id="freepik--background-simple--inject-17"><path d="M456.57,119.12c-9-20.19-25-37.18-43.07-52.75-41-35.31-94.09-53.35-148.35-56.21-55.6-2.93-113.77,8.58-159.94,41.06S27,139.15,31.24,194.66C35,243.3,64.84,290.75,50.38,337.81,45.06,355.16,33.89,371,32.36,389c-4.24,49.85,48.51,72.33,88.28,83.07,58.79,15.89,122,20.91,183.06,16.66,32.54-2.27,66.32-8.65,96.82-21.13,46-18.81,74.19-55.7,50.06-103.29-14.2-28-26.49-51.61-21-84.61,6.44-38.75,28.46-73.6,33.69-112.6A87,87,0,0,0,456.57,119.12Z" style="fill:#FCD96B"></path><path d="M456.57,119.12c-9-20.19-25-37.18-43.07-52.75-41-35.31-94.09-53.35-148.35-56.21-55.6-2.93-113.77,8.58-159.94,41.06S27,139.15,31.24,194.66C35,243.3,64.84,290.75,50.38,337.81,45.06,355.16,33.89,371,32.36,389c-4.24,49.85,48.51,72.33,88.28,83.07,58.79,15.89,122,20.91,183.06,16.66,32.54-2.27,66.32-8.65,96.82-21.13,46-18.81,74.19-55.7,50.06-103.29-14.2-28-26.49-51.61-21-84.61,6.44-38.75,28.46-73.6,33.69-112.6A87,87,0,0,0,456.57,119.12Z" style="fill:#fff;opacity:0.7000000000000001"></path></g><g id="freepik--Clouds--inject-17"><path d="M310.85,105.74a22.44,22.44,0,0,0-5.39,10.16A13.45,13.45,0,0,0,288,112.2,26.32,26.32,0,0,0,236.1,109a17.13,17.13,0,0,0-23.34-.64" style="fill:none;stroke:#263238;stroke-miterlimit:10"></path><path d="M382.57,78a35.56,35.56,0,0,0-5.4-.42A34.71,34.71,0,0,0,343.25,105a22.56,22.56,0,0,0-27.45-3.27" style="fill:none;stroke:#263238;stroke-miterlimit:10"></path><path d="M402.07,88.1a35.11,35.11,0,0,0-8.36-6.35" style="fill:none;stroke:#263238;stroke-miterlimit:10"></path><path d="M389.57,121.88H453.7a11.24,11.24,0,0,0-16.48-3.11,17.76,17.76,0,0,0-25.5-9.65,34.52,34.52,0,0,0-6.59-17.4" style="fill:none;stroke:#263238;stroke-miterlimit:10"></path><path d="M210.08,111.39a17,17,0,0,0-3.12,9.85c0,.22,0,.43,0,.64H377" style="fill:none;stroke:#263238;stroke-miterlimit:10"></path><path d="M437.65,133.3a15.43,15.43,0,0,0-25.1,8.5,10,10,0,0,0-16.8,4.86A6,6,0,0,0,388,145a11.71,11.71,0,0,0-23.1-1.41,7.62,7.62,0,0,0-13,5.43c0,.1,0,.19,0,.28H461.68a5,5,0,0,0-7.34-1.38,7.89,7.89,0,0,0-7.46-5.31,7.78,7.78,0,0,0-3.87,1,15.82,15.82,0,0,0-.7-3.39" style="fill:none;stroke:#263238;stroke-miterlimit:10"></path><path d="M88.29,182.74A11.53,11.53,0,0,0,85.53,188a6.87,6.87,0,0,0-8.93-1.89A13.5,13.5,0,0,0,50,184.43a8.8,8.8,0,0,0-12-.33" style="fill:none;stroke:#263238;stroke-miterlimit:10"></path><path d="M125.08,168.5a17.84,17.84,0,0,0-20.16,13.84,11.59,11.59,0,0,0-14.09-1.68" style="fill:none;stroke:#263238;stroke-miterlimit:10"></path><path d="M135.09,173.69a18,18,0,0,0-4.29-3.26" style="fill:none;stroke:#263238;stroke-miterlimit:10"></path><path d="M128.68,191h32.9a5.79,5.79,0,0,0-5-2.79,5.73,5.73,0,0,0-3.51,1.2,9.1,9.1,0,0,0-13.08-5,17.71,17.71,0,0,0-3.38-8.93" style="fill:none;stroke:#263238;stroke-miterlimit:10"></path><path d="M36.6,185.64a8.72,8.72,0,0,0-1.6,5.05c0,.11,0,.22,0,.33H122.2" style="fill:none;stroke:#263238;stroke-miterlimit:10"></path><path d="M153.34,196.88a7.91,7.91,0,0,0-12.87,4.36,5.15,5.15,0,0,0-8.63,2.49,3.06,3.06,0,0,0-4-.84,6,6,0,0,0-11.85-.72,3.9,3.9,0,0,0-6.65,2.78c0,.05,0,.1,0,.15h56.29a2.57,2.57,0,0,0-2.2-1.24,2.6,2.6,0,0,0-1.57.53,4,4,0,0,0-3.82-2.73,3.94,3.94,0,0,0-2,.53,8.14,8.14,0,0,0-.36-1.74" style="fill:none;stroke:#263238;stroke-miterlimit:10"></path></g><g id="freepik--Castle--inject-17"><polygon points="223.34 323.45 188.52 323.45 193.75 208.81 218.11 208.81 223.34 323.45" style="fill:#fff;stroke:#263238;stroke-linecap:round;stroke-linejoin:round"></polygon><polygon points="218.2 207.94 193.66 207.94 197.34 127.11 214.52 127.11 218.2 207.94" style="fill:#fff;stroke:#263238;stroke-linecap:round;stroke-linejoin:round"></polygon><rect x="190.78" y="210.29" width="30.28" height="18.95" style="fill:#fff;stroke:#263238;stroke-linecap:round;stroke-linejoin:round"></rect><rect x="188.52" y="215.11" width="34.81" height="18.24" style="fill:#FCD96B;stroke:#263238;stroke-linecap:round;stroke-linejoin:round"></rect><rect x="188.52" y="206.6" width="34.81" height="5.47" style="fill:#FCD96B;stroke:#263238;stroke-linecap:round;stroke-linejoin:round"></rect><rect x="195.19" y="124.22" width="21.48" height="5.47" style="fill:#FCD96B;stroke:#263238;stroke-linecap:round;stroke-linejoin:round"></rect><rect x="194.31" y="157.18" width="23.23" height="5.47" style="fill:#FCD96B;stroke:#263238;stroke-linecap:round;stroke-linejoin:round"></rect><path d="M202.2,136h7.36a0,0,0,0,1,0,0v9.57a3.5,3.5,0,0,1-3.5,3.5h-.36a3.5,3.5,0,0,1-3.5-3.5V136A0,0,0,0,1,202.2,136Z" transform="translate(411.76 284.99) rotate(180)" style="fill:#263238"></path><path d="M195.36,245.87h7.36a0,0,0,0,1,0,0v9.57a3.5,3.5,0,0,1-3.5,3.5h-.36a3.5,3.5,0,0,1-3.5-3.5v-9.57A0,0,0,0,1,195.36,245.87Z" transform="translate(398.09 504.8) rotate(180)" style="fill:#263238"></path><path d="M208,245.87h7.36a0,0,0,0,1,0,0v9.57a3.5,3.5,0,0,1-3.5,3.5h-.36a3.5,3.5,0,0,1-3.5-3.5v-9.57A0,0,0,0,1,208,245.87Z" transform="translate(423.33 504.8) rotate(180)" style="fill:#263238"></path><path d="M205.94,82.57l-5.08,20.88A45.56,45.56,0,0,1,190,123.68l-.42.45h32.81l-.41-.45a45.22,45.22,0,0,1-10.84-20.08Z" style="fill:#263238;stroke:#263238;stroke-linecap:round;stroke-linejoin:round"></path><polygon points="313.92 323.45 279.11 323.45 284.33 208.81 308.7 208.81 313.92 323.45" style="fill:#fff;stroke:#263238;stroke-linecap:round;stroke-linejoin:round"></polygon><polygon points="308.79 207.94 284.24 207.94 287.92 127.11 305.1 127.11 308.79 207.94" style="fill:#fff;stroke:#263238;stroke-linecap:round;stroke-linejoin:round"></polygon><rect x="281.36" y="210.29" width="30.28" height="18.95" style="fill:#fff;stroke:#263238;stroke-linecap:round;stroke-linejoin:round"></rect><rect x="279.11" y="215.11" width="34.81" height="18.24" style="fill:#FCD96B;stroke:#263238;stroke-linecap:round;stroke-linejoin:round"></rect><rect x="279.11" y="206.6" width="34.81" height="5.47" style="fill:#FCD96B;stroke:#263238;stroke-linecap:round;stroke-linejoin:round"></rect><rect x="285.77" y="124.22" width="21.48" height="5.47" style="fill:#263238;stroke:#263238;stroke-linecap:round;stroke-linejoin:round"></rect><rect x="284.9" y="157.18" width="23.23" height="5.47" style="fill:#FCD96B;stroke:#263238;stroke-linecap:round;stroke-linejoin:round"></rect><path d="M292.78,136h7.36a0,0,0,0,1,0,0v9.57a3.5,3.5,0,0,1-3.5,3.5h-.36a3.5,3.5,0,0,1-3.5-3.5V136A0,0,0,0,1,292.78,136Z" transform="translate(592.93 284.99) rotate(180)" style="fill:#263238"></path><path d="M285.95,245.87h7.36a0,0,0,0,1,0,0v9.57a3.5,3.5,0,0,1-3.5,3.5h-.36a3.5,3.5,0,0,1-3.5-3.5v-9.57A0,0,0,0,1,285.95,245.87Z" transform="translate(579.25 504.8) rotate(180)" style="fill:#263238"></path><path d="M298.57,245.87h7.36a0,0,0,0,1,0,0v9.57a3.5,3.5,0,0,1-3.5,3.5h-.36a3.5,3.5,0,0,1-3.5-3.5v-9.57A0,0,0,0,1,298.57,245.87Z" transform="translate(604.49 504.8) rotate(180)" style="fill:#263238"></path><path d="M296.53,82.57l-5.09,20.88a45.47,45.47,0,0,1-10.91,20.23l-.42.45h32.82l-.42-.45a45.22,45.22,0,0,1-10.84-20.08Z" style="fill:#263238;stroke:#263238;stroke-linecap:round;stroke-linejoin:round"></path><path d="M150.3,228.55c-11,0-21,2.14-28.66,5.65v16c6-5.41,16.58-9,28.66-9s22.87,3.66,28.84,9.15v-16C171.43,230.72,161.35,228.55,150.3,228.55Z" style="fill:#fff;stroke:#263238;stroke-linecap:round;stroke-linejoin:round"></path><path d="M353.64,228.55c-11,0-21,2.14-28.66,5.65v16c6-5.41,16.58-9,28.66-9s22.86,3.66,28.83,9.15v-16C374.77,230.72,364.68,228.55,353.64,228.55Z" style="fill:#fff;stroke:#263238;stroke-linecap:round;stroke-linejoin:round"></path><polygon points="129.63 366.9 94.82 366.9 100.04 252.26 124.41 252.26 129.63 366.9" style="fill:#fff;stroke:#263238;stroke-linecap:round;stroke-linejoin:round"></polygon><polygon points="124.5 251.39 99.95 251.39 103.64 170.56 120.82 170.56 124.5 251.39" style="fill:#fff;stroke:#263238;stroke-linecap:round;stroke-linejoin:round"></polygon><rect x="97.07" y="253.74" width="30.28" height="18.95" style="fill:#fff;stroke:#263238;stroke-linecap:round;stroke-linejoin:round"></rect><rect x="94.82" y="258.56" width="34.81" height="18.24" style="fill:#FCD96B;stroke:#263238;stroke-linecap:round;stroke-linejoin:round"></rect><rect x="94.82" y="250.05" width="34.81" height="5.47" style="fill:#FCD96B;stroke:#263238;stroke-linecap:round;stroke-linejoin:round"></rect><rect x="101.49" y="167.67" width="21.48" height="5.47" style="fill:#FCD96B;stroke:#263238;stroke-linecap:round;stroke-linejoin:round"></rect><rect x="100.61" y="200.62" width="23.23" height="5.47" style="fill:#FCD96B;stroke:#263238;stroke-linecap:round;stroke-linejoin:round"></rect><path d="M108.5,179.41h7.36a0,0,0,0,1,0,0V189a3.5,3.5,0,0,1-3.5,3.5H112a3.5,3.5,0,0,1-3.5-3.5v-9.57A0,0,0,0,1,108.5,179.41Z" transform="translate(224.35 371.88) rotate(180)" style="fill:#263238"></path><path d="M101.66,289.32H109a0,0,0,0,1,0,0v9.57a3.5,3.5,0,0,1-3.5,3.5h-.36a3.5,3.5,0,0,1-3.5-3.5v-9.57A0,0,0,0,1,101.66,289.32Z" transform="translate(210.68 591.7) rotate(180)" style="fill:#263238"></path><path d="M114.28,289.32h7.36a0,0,0,0,1,0,0v9.57a3.5,3.5,0,0,1-3.5,3.5h-.36a3.5,3.5,0,0,1-3.5-3.5v-9.57A0,0,0,0,1,114.28,289.32Z" transform="translate(235.92 591.7) rotate(180)" style="fill:#263238"></path><path d="M112.24,126l-5.09,20.89a45.55,45.55,0,0,1-10.9,20.23l-.42.45h32.81l-.41-.45a45.27,45.27,0,0,1-10.84-20.08Z" style="fill:#263238;stroke:#263238;stroke-linecap:round;stroke-linejoin:round"></path><rect x="87.1" y="325.31" width="50.25" height="125.86" style="fill:#fff;stroke:#263238;stroke-linecap:round;stroke-linejoin:round"></rect><polygon points="138.09 321.22 138.09 325.04 132.23 325.04 132.23 321.22 126.37 321.22 126.37 325.04 120.51 325.04 120.51 321.22 120.04 321.22 115.6 321.22 114.65 321.22 114.65 325.04 109.74 325.04 109.74 321.22 108.79 321.22 104.42 321.22 103.88 321.22 103.88 325.04 98.02 325.04 98.02 321.22 92.15 321.22 92.15 325.04 86.29 325.04 86.29 321.22 81.92 321.22 81.92 333.24 104.42 333.24 120.04 333.24 142.53 333.24 142.53 321.22 138.09 321.22" style="fill:#FCD96B;stroke:#263238;stroke-linecap:round;stroke-linejoin:round"></polygon><rect x="91.33" y="337.69" width="3.65" height="9.73" style="fill:#263238"></rect><rect x="99.23" y="337.69" width="3.65" height="9.73" style="fill:#263238"></rect><rect x="107.14" y="337.69" width="3.65" height="9.73" style="fill:#263238"></rect><rect x="115.04" y="337.69" width="3.65" height="9.73" style="fill:#263238"></rect><rect x="122.95" y="337.69" width="3.65" height="9.73" style="fill:#263238"></rect><rect x="130.85" y="337.69" width="3.65" height="9.73" style="fill:#263238"></rect><rect x="175.15" y="198.79" width="34.27" height="85.83" style="fill:#fff;stroke:#263238;stroke-linecap:round;stroke-linejoin:round"></rect><polygon points="209.93 196 209.93 198.61 205.93 198.61 205.93 196 201.93 196 201.93 198.61 197.93 198.61 197.93 196 197.61 196 194.58 196 193.94 196 193.94 198.61 190.59 198.61 190.59 196 189.94 196 186.96 196 186.59 196 186.59 198.61 182.59 198.61 182.59 196 178.59 196 178.59 198.61 174.6 198.61 174.6 196 171.62 196 171.62 204.2 186.96 204.2 197.61 204.2 212.95 204.2 212.95 196 209.93 196" style="fill:#FCD96B;stroke:#263238;stroke-linecap:round;stroke-linejoin:round"></polygon><rect x="178.03" y="207.24" width="2.49" height="6.63" style="fill:#263238"></rect><rect x="183.42" y="207.24" width="2.49" height="6.63" style="fill:#263238"></rect><rect x="188.81" y="207.24" width="2.49" height="6.63" style="fill:#263238"></rect><rect x="194.2" y="207.24" width="2.49" height="6.63" style="fill:#263238"></rect><rect x="199.59" y="207.24" width="2.49" height="6.63" style="fill:#263238"></rect><rect x="204.98" y="207.24" width="2.49" height="6.63" style="fill:#263238"></rect><rect x="300.82" y="198.79" width="34.27" height="85.83" style="fill:#fff;stroke:#263238;stroke-linecap:round;stroke-linejoin:round"></rect><polygon points="335.6 196 335.6 198.61 331.6 198.61 331.6 196 327.6 196 327.6 198.61 323.61 198.61 323.61 196 323.28 196 320.26 196 319.61 196 319.61 198.61 316.26 198.61 316.26 196 315.61 196 312.63 196 312.26 196 312.26 198.61 308.26 198.61 308.26 196 304.27 196 304.27 198.61 300.27 198.61 300.27 196 297.29 196 297.29 204.2 312.63 204.2 323.28 204.2 338.63 204.2 338.63 196 335.6 196" style="fill:#FCD96B;stroke:#263238;stroke-linecap:round;stroke-linejoin:round"></polygon><rect x="303.71" y="207.24" width="2.49" height="6.63" style="fill:#263238"></rect><rect x="309.1" y="207.24" width="2.49" height="6.63" style="fill:#263238"></rect><rect x="314.49" y="207.24" width="2.49" height="6.63" style="fill:#263238"></rect><rect x="319.88" y="207.24" width="2.49" height="6.63" style="fill:#263238"></rect><rect x="325.27" y="207.24" width="2.49" height="6.63" style="fill:#263238"></rect><rect x="330.66" y="207.24" width="2.49" height="6.63" style="fill:#263238"></rect><rect x="292.83" y="247.73" width="50.25" height="125.86" style="fill:#fff;stroke:#263238;stroke-linecap:round;stroke-linejoin:round"></rect><polygon points="343.82 243.63 343.82 247.46 337.96 247.46 337.96 243.63 332.1 243.63 332.1 247.46 326.24 247.46 326.24 243.63 325.77 243.63 321.33 243.63 320.38 243.63 320.38 247.46 315.47 247.46 315.47 243.63 314.52 243.63 310.15 243.63 309.61 243.63 309.61 247.46 303.75 247.46 303.75 243.63 297.88 243.63 297.88 247.46 292.02 247.46 292.02 243.63 287.65 243.63 287.65 255.65 310.15 255.65 325.77 255.65 348.26 255.65 348.26 243.63 343.82 243.63" style="fill:#FCD96B;stroke:#263238;stroke-linecap:round;stroke-linejoin:round"></polygon><rect x="297.06" y="260.11" width="3.65" height="9.73" style="fill:#263238"></rect><rect x="304.96" y="260.11" width="3.65" height="9.73" style="fill:#263238"></rect><rect x="312.87" y="260.11" width="3.65" height="9.73" style="fill:#263238"></rect><rect x="320.77" y="260.11" width="3.65" height="9.73" style="fill:#263238"></rect><rect x="328.68" y="260.11" width="3.65" height="9.73" style="fill:#263238"></rect><rect x="336.58" y="260.11" width="3.65" height="9.73" style="fill:#263238"></rect><rect x="167.16" y="247.73" width="50.25" height="125.86" style="fill:#fff;stroke:#263238;stroke-linecap:round;stroke-linejoin:round"></rect><polygon points="218.15 243.63 218.15 247.46 212.29 247.46 212.29 243.63 206.43 243.63 206.43 247.46 200.57 247.46 200.57 243.63 200.09 243.63 195.66 243.63 194.71 243.63 194.71 247.46 189.79 247.46 189.79 243.63 188.84 243.63 184.47 243.63 183.93 243.63 183.93 247.46 178.07 247.46 178.07 243.63 172.21 243.63 172.21 247.46 166.35 247.46 166.35 243.63 161.98 243.63 161.98 255.65 184.47 255.65 200.09 255.65 222.59 255.65 222.59 243.63 218.15 243.63" style="fill:#FCD96B;stroke:#263238;stroke-linecap:round;stroke-linejoin:round"></polygon><rect x="171.39" y="260.11" width="3.65" height="9.73" style="fill:#263238"></rect><rect x="179.29" y="260.11" width="3.65" height="9.73" style="fill:#263238"></rect><rect x="187.19" y="260.11" width="3.65" height="9.73" style="fill:#263238"></rect><rect x="195.1" y="260.11" width="3.65" height="9.73" style="fill:#263238"></rect><rect x="203" y="260.11" width="3.65" height="9.73" style="fill:#263238"></rect><rect x="210.91" y="260.11" width="3.65" height="9.73" style="fill:#263238"></rect><polygon points="407.72 366.9 372.91 366.9 378.13 252.26 402.5 252.26 407.72 366.9" style="fill:#fff;stroke:#263238;stroke-linecap:round;stroke-linejoin:round"></polygon><polygon points="402.59 251.39 378.04 251.39 381.73 170.56 398.91 170.56 402.59 251.39" style="fill:#fff;stroke:#263238;stroke-linecap:round;stroke-linejoin:round"></polygon><rect x="375.16" y="253.74" width="30.28" height="18.95" style="fill:#fff;stroke:#263238;stroke-linecap:round;stroke-linejoin:round"></rect><rect x="372.91" y="258.56" width="34.81" height="18.24" style="fill:#FCD96B;stroke:#263238;stroke-linecap:round;stroke-linejoin:round"></rect><rect x="372.91" y="250.05" width="34.81" height="5.47" style="fill:#FCD96B;stroke:#263238;stroke-linecap:round;stroke-linejoin:round"></rect><rect x="379.58" y="167.67" width="21.48" height="5.47" style="fill:#FCD96B;stroke:#263238;stroke-linecap:round;stroke-linejoin:round"></rect><rect x="378.7" y="200.62" width="23.23" height="5.47" style="fill:#FCD96B;stroke:#263238;stroke-linecap:round;stroke-linejoin:round"></rect><path d="M386.58,179.41h7.36a0,0,0,0,1,0,0V189a3.5,3.5,0,0,1-3.5,3.5h-.36a3.5,3.5,0,0,1-3.5-3.5v-9.57A0,0,0,0,1,386.58,179.41Z" transform="translate(780.53 371.88) rotate(180)" style="fill:#263238"></path><path d="M379.75,289.32h7.36a0,0,0,0,1,0,0v9.57a3.5,3.5,0,0,1-3.5,3.5h-.36a3.5,3.5,0,0,1-3.5-3.5v-9.57A0,0,0,0,1,379.75,289.32Z" transform="translate(766.86 591.7) rotate(180)" style="fill:#263238"></path><path d="M392.37,289.32h7.36a0,0,0,0,1,0,0v9.57a3.5,3.5,0,0,1-3.5,3.5h-.36a3.5,3.5,0,0,1-3.5-3.5v-9.57A0,0,0,0,1,392.37,289.32Z" transform="translate(792.1 591.7) rotate(180)" style="fill:#263238"></path><path d="M390.33,126l-5.09,20.89a45.55,45.55,0,0,1-10.9,20.23l-.42.45h32.81l-.41-.45a45.27,45.27,0,0,1-10.84-20.08Z" style="fill:#263238;stroke:#263238;stroke-linecap:round;stroke-linejoin:round"></path><polygon points="267.93 273.08 233.11 273.08 238.34 158.44 262.7 158.44 267.93 273.08" style="fill:#fff;stroke:#263238;stroke-linecap:round;stroke-linejoin:round"></polygon><polygon points="262.79 157.57 238.25 157.57 241.93 76.74 259.11 76.74 262.79 157.57" style="fill:#fff;stroke:#263238;stroke-linecap:round;stroke-linejoin:round"></polygon><rect x="235.37" y="159.92" width="30.28" height="18.95" style="fill:#fff;stroke:#263238;stroke-linecap:round;stroke-linejoin:round"></rect><rect x="233.11" y="164.74" width="34.81" height="18.24" style="fill:#FCD96B;stroke:#263238;stroke-linecap:round;stroke-linejoin:round"></rect><rect x="233.11" y="156.23" width="34.81" height="5.47" style="fill:#FCD96B;stroke:#263238;stroke-linecap:round;stroke-linejoin:round"></rect><rect x="239.78" y="73.85" width="21.48" height="5.47" style="fill:#FCD96B;stroke:#263238;stroke-linecap:round;stroke-linejoin:round"></rect><rect x="238.9" y="106.81" width="23.23" height="5.47" style="fill:#FCD96B;stroke:#263238;stroke-linecap:round;stroke-linejoin:round"></rect><path d="M246.79,85.59h7.36a0,0,0,0,1,0,0v9.57a3.5,3.5,0,0,1-3.5,3.5h-.36a3.5,3.5,0,0,1-3.5-3.5V85.59A0,0,0,0,1,246.79,85.59Z" transform="translate(500.94 184.25) rotate(180)" style="fill:#263238"></path><path d="M240,195.5h7.36a0,0,0,0,1,0,0v9.57a3.5,3.5,0,0,1-3.5,3.5h-.36a3.5,3.5,0,0,1-3.5-3.5V195.5A0,0,0,0,1,240,195.5Z" transform="translate(487.27 404.06) rotate(180)" style="fill:#263238"></path><path d="M252.57,195.5h7.36a0,0,0,0,1,0,0v9.57a3.5,3.5,0,0,1-3.5,3.5h-.36a3.5,3.5,0,0,1-3.5-3.5V195.5A0,0,0,0,1,252.57,195.5Z" transform="translate(512.51 404.06) rotate(180)" style="fill:#263238"></path><path d="M250.53,32.2l-5.09,20.88a45.45,45.45,0,0,1-10.9,20.23l-.42.45h32.81l-.41-.45a45.22,45.22,0,0,1-10.84-20.08Z" style="fill:#263238;stroke:#263238;stroke-linecap:round;stroke-linejoin:round"></path><rect x="365.19" y="325.31" width="50.25" height="125.86" style="fill:#fff;stroke:#263238;stroke-linecap:round;stroke-linejoin:round"></rect><polygon points="416.19 321.22 416.19 325.04 410.32 325.04 410.32 321.22 404.46 321.22 404.46 325.04 398.6 325.04 398.6 321.22 398.13 321.22 393.69 321.22 392.74 321.22 392.74 325.04 387.83 325.04 387.83 321.22 386.88 321.22 382.51 321.22 381.97 321.22 381.97 325.04 376.11 325.04 376.11 321.22 370.24 321.22 370.24 325.04 364.38 325.04 364.38 321.22 360.01 321.22 360.01 333.24 382.51 333.24 398.13 333.24 420.62 333.24 420.62 321.22 416.19 321.22" style="fill:#FCD96B;stroke:#263238;stroke-linecap:round;stroke-linejoin:round"></polygon><rect x="369.42" y="337.69" width="3.65" height="9.73" style="fill:#263238"></rect><rect x="377.32" y="337.69" width="3.65" height="9.73" style="fill:#263238"></rect><rect x="385.23" y="337.69" width="3.65" height="9.73" style="fill:#263238"></rect><rect x="393.13" y="337.69" width="3.65" height="9.73" style="fill:#263238"></rect><rect x="401.04" y="337.69" width="3.65" height="9.73" style="fill:#263238"></rect><rect x="408.94" y="337.69" width="3.65" height="9.73" style="fill:#263238"></rect><rect x="191.78" y="273.58" width="117.48" height="86.88" style="fill:#fff;stroke:#263238;stroke-linecap:round;stroke-linejoin:round"></rect><rect x="121.37" y="364.29" width="258.3" height="86.88" style="fill:#fff;stroke:#263238;stroke-linecap:round;stroke-linejoin:round"></rect><rect x="227.95" y="364.29" width="45.15" height="86.88" style="fill:#FCD96B;stroke:#263238;stroke-linecap:round;stroke-linejoin:round"></rect><path d="M264,451.17H237.06V389.12l4.76-1.85a24.08,24.08,0,0,1,17.5,0l4.66,1.83Z" style="fill:#fff;stroke:#263238;stroke-linecap:round;stroke-linejoin:round"></path><path d="M261.66,451.17H239.38V393.49l3.94-1.72a17.94,17.94,0,0,1,14.48,0l3.86,1.7Z" style="fill:#263238;stroke:#263238;stroke-linecap:round;stroke-linejoin:round"></path><rect x="185.22" y="273.58" width="130.59" height="43.71" style="fill:#263238;stroke:#263238;stroke-linecap:round;stroke-linejoin:round"></rect><rect x="185.22" y="300.1" width="130.59" height="1" style="fill:#666"></rect><rect x="185.22" y="288.88" width="130.59" height="1" style="fill:#666"></rect><rect x="185.22" y="294.49" width="130.59" height="1" style="fill:#666"></rect><rect x="185.22" y="283.27" width="130.59" height="1" style="fill:#666"></rect><rect x="185.22" y="311.32" width="130.59" height="1" style="fill:#666"></rect><rect x="185.22" y="277.66" width="130.59" height="1" style="fill:#666"></rect><rect x="185.22" y="305.71" width="130.59" height="1" style="fill:#666"></rect><polygon points="282.49 287.24 251.01 310.24 218.55 287.24 218.55 220.03 282.49 220.03 282.49 287.24" style="fill:#fff;stroke:#263238;stroke-linecap:round;stroke-linejoin:round"></polygon><polygon points="213.64 224.95 218.72 228.86 282.98 228.86 287.4 224.95 213.64 224.95" style="fill:#fff;stroke:#263238;stroke-linecap:round;stroke-linejoin:round"></polygon><polygon points="282.49 212.93 282.49 216.75 276.62 216.75 276.62 212.93 270.76 212.93 270.76 216.75 264.9 216.75 264.9 212.93 259.04 212.93 259.04 216.75 253.18 216.75 253.18 212.93 247.32 212.93 247.32 216.75 241.45 216.75 241.45 212.93 235.59 212.93 235.59 216.75 229.73 216.75 229.73 212.93 223.87 212.93 223.87 216.75 218.01 216.75 218.01 212.93 213.64 212.93 213.64 224.95 287.4 224.95 287.4 212.93 282.49 212.93" style="fill:#FCD96B;stroke:#263238;stroke-linecap:round;stroke-linejoin:round"></polygon><rect x="224.56" y="273.58" width="51.91" height="86.88" style="fill:#fff;stroke:#263238;stroke-linecap:round;stroke-linejoin:round"></rect><path d="M249.89,278.69h.65a6.25,6.25,0,0,1,6.25,6.25v16.89a0,0,0,0,1,0,0H243.64a0,0,0,0,1,0,0V284.94A6.25,6.25,0,0,1,249.89,278.69Z" style="fill:#263238;stroke:#263238;stroke-linecap:round;stroke-linejoin:round"></path><rect x="236.28" y="296.04" width="28.92" height="10.52" style="fill:#FCD96B;stroke:#263238;stroke-linecap:round;stroke-linejoin:round"></rect><path d="M243.56,327.33l-1.19-.95a5.35,5.35,0,0,0-6.64,0l-1.22,1Z" style="fill:#263238"></path><rect x="234.18" y="329" width="2.79" height="20.68" style="fill:#263238"></rect><rect x="237.92" y="329" width="2.27" height="20.68" style="fill:#263238"></rect><rect x="241.15" y="329" width="2.75" height="20.68" style="fill:#263238"></rect><path d="M264.07,327.33l-1.19-.95a5.35,5.35,0,0,0-6.64,0l-1.22,1Z" style="fill:#263238"></path><rect x="254.69" y="329" width="2.79" height="20.68" style="fill:#263238"></rect><rect x="258.43" y="329" width="2.27" height="20.68" style="fill:#263238"></rect><rect x="261.65" y="329" width="2.75" height="20.68" style="fill:#263238"></rect><path d="M289.84,327.33l-1.2-.95a5.35,5.35,0,0,0-6.64,0l-1.22,1Z" style="fill:#263238"></path><rect x="280.45" y="329" width="2.79" height="20.68" style="fill:#263238"></rect><rect x="284.2" y="329" width="2.27" height="20.68" style="fill:#263238"></rect><rect x="287.42" y="329" width="2.75" height="20.68" style="fill:#263238"></rect><path d="M304,327.33l-1.2-.95a5.35,5.35,0,0,0-6.64,0l-1.22,1Z" style="fill:#263238"></path><rect x="294.65" y="329" width="2.79" height="20.68" style="fill:#263238"></rect><rect x="298.4" y="329" width="2.27" height="20.68" style="fill:#263238"></rect><rect x="301.62" y="329" width="2.75" height="20.68" style="fill:#263238"></rect><path d="M205.7,327.33l-1.2-.95a5.33,5.33,0,0,0-6.63,0l-1.22,1Z" style="fill:#263238"></path><rect x="196.32" y="329" width="2.79" height="20.68" style="fill:#263238"></rect><rect x="200.06" y="329" width="2.27" height="20.68" style="fill:#263238"></rect><rect x="203.28" y="329" width="2.75" height="20.68" style="fill:#263238"></rect><path d="M219.9,327.33l-1.2-.95a5.35,5.35,0,0,0-6.64,0l-1.22,1Z" style="fill:#263238"></path><rect x="210.51" y="329" width="2.79" height="20.68" style="fill:#263238"></rect><rect x="214.26" y="329" width="2.27" height="20.68" style="fill:#263238"></rect><rect x="217.48" y="329" width="2.75" height="20.68" style="fill:#263238"></rect><polygon points="378.41 355.57 378.41 359.4 372.55 359.4 372.55 355.57 366.69 355.57 366.69 359.4 360.82 359.4 360.82 355.57 354.96 355.57 354.96 359.4 349.1 359.4 349.1 355.57 343.24 355.57 343.24 359.4 337.57 359.4 337.57 355.57 337.38 355.57 332.65 355.57 331.52 355.57 331.52 359.4 326.79 359.4 326.79 355.57 325.66 355.57 321.98 355.57 320.85 355.57 320.85 359.4 316.12 359.4 316.12 355.57 314.99 355.57 310.61 355.57 310.25 355.57 310.25 359.4 304.39 359.4 304.39 355.57 298.53 355.57 298.53 359.4 292.67 359.4 292.67 355.57 292.12 355.57 287.2 355.57 286.81 355.57 286.81 359.4 281.63 359.4 281.63 355.57 281.34 355.57 280.95 355.57 276.71 355.57 276.53 355.57 276.14 355.57 276.14 359.4 270.85 359.4 270.85 355.57 270.67 355.57 270.28 355.57 265.9 355.57 264.99 355.57 264.81 355.57 264.81 359.4 259.13 359.4 259.13 355.57 258.95 355.57 253.27 355.57 253.09 355.57 253.09 359.4 247.41 359.4 247.41 355.57 247.22 355.57 241.54 355.57 241.36 355.57 241.36 359.4 235.87 359.4 235.87 355.57 235.68 355.57 235.5 355.57 230.96 355.57 229.82 355.57 229.64 355.57 229.64 359.4 225.09 359.4 225.09 355.57 223.96 355.57 223.78 355.57 220.28 355.57 219.41 355.57 219.15 355.57 219.15 359.4 214.42 359.4 214.42 355.57 213.29 355.57 208.92 355.57 208.56 355.57 208.56 359.4 202.7 359.4 202.7 355.57 196.84 355.57 196.84 359.4 190.98 359.4 190.98 355.57 190.43 355.57 185.51 355.57 185.11 355.57 185.11 359.4 179.65 359.4 179.65 355.57 179.25 355.57 174.84 355.57 174.44 355.57 174.44 359.4 168.98 359.4 168.98 355.57 168.58 355.57 164.21 355.57 163.11 355.57 163.11 359.4 157.25 359.4 157.25 355.57 151.39 355.57 151.39 359.4 145.53 359.4 145.53 355.57 139.67 355.57 139.67 359.4 133.81 359.4 133.81 355.57 127.94 355.57 127.94 359.4 122.08 359.4 122.08 355.57 117.71 355.57 117.71 367.6 383.33 367.6 383.33 355.57 378.41 355.57" style="fill:#FCD96B;stroke:#263238;stroke-linecap:round;stroke-linejoin:round"></polygon><rect x="146.36" y="336.53" width="29.45" height="114.64" style="fill:#fff;stroke:#263238;stroke-linecap:round;stroke-linejoin:round"></rect><polygon points="180.14 332.44 175.7 332.44 175.7 336.26 169.84 336.26 169.84 332.44 163.98 332.44 163.98 336.26 158.12 336.26 158.12 332.44 152.26 332.44 152.26 336.26 146.4 336.26 146.4 332.44 142.02 332.44 142.02 344.46 180.14 344.46 180.14 332.44" style="fill:#FCD96B;stroke:#263238;stroke-linecap:round;stroke-linejoin:round"></polygon><rect x="324.1" y="336.53" width="29.45" height="114.64" style="fill:#fff;stroke:#263238;stroke-linecap:round;stroke-linejoin:round"></rect><polygon points="357.88 332.44 353.45 332.44 353.45 336.26 347.58 336.26 347.58 332.44 341.72 332.44 341.72 336.26 335.86 336.26 335.86 332.44 330 332.44 330 336.26 324.14 336.26 324.14 332.44 319.77 332.44 319.77 344.46 357.88 344.46 357.88 332.44" style="fill:#FCD96B;stroke:#263238;stroke-linecap:round;stroke-linejoin:round"></polygon><polygon points="278.39 273.58 222.64 273.58 242.16 231.74 258.88 231.74 278.39 273.58" style="fill:#263238;stroke:#263238;stroke-linecap:round;stroke-linejoin:round"></polygon><polygon points="266.13 247.28 265.66 246.28 235.38 246.28 234.91 247.28 266.13 247.28" style="fill:#666"></polygon><polygon points="263.51 241.67 263.05 240.67 237.99 240.67 237.53 241.67 263.51 241.67" style="fill:#666"></polygon><polygon points="268.75 252.89 268.28 251.89 232.76 251.89 232.29 252.89 268.75 252.89" style="fill:#666"></polygon><polygon points="240.14 236.06 260.9 236.06 260.43 235.06 240.61 235.06 240.14 236.06" style="fill:#666"></polygon><polygon points="276.6 269.72 276.13 268.72 224.91 268.72 224.44 269.72 276.6 269.72" style="fill:#666"></polygon><polygon points="271.36 258.5 270.9 257.5 230.14 257.5 229.68 258.5 271.36 258.5" style="fill:#666"></polygon><polygon points="273.98 264.11 273.51 263.11 227.53 263.11 227.06 264.11 273.98 264.11" style="fill:#666"></polygon></g><g id="freepik--Trees--inject-17"><path d="M79.83,411.93s-6.9,1.5-17.32-6.44,7.05-42.28,14.31-50.15,25.65,35,20.3,44.05S85.66,410.9,79.83,411.93Z" style="fill:#FCD96B"></path><polyline points="76.96 449.74 78.04 401.7 73.38 396.69 78.4 399.55 78.4 390.95 71.94 383.42 78.04 388.08 77.32 381.99 79.11 384.86 80.19 367.65 80.91 393.82 92.74 387.37 80.91 397.4 80.91 402.06 80.91 451.17" style="fill:#263238"></polyline><path d="M79.59,429c.3-.76-1.63-.86-2.14-.87l0,2.29C78.07,430.13,79.34,429.59,79.59,429Z" style="fill:gray"></path><path d="M80.91,409.57c-1,.24-3,.82-2.4,1.41a4.43,4.43,0,0,0,2.4.71Z" style="fill:gray"></path><path d="M79.73,416c.31-.76-2-.76-2-.76v0l0,2C78.23,417.13,79.49,416.63,79.73,416Z" style="fill:gray"></path><path d="M79.58,406.08c.23-.57-1-.72-1.62-.76l0,1.91C78.53,407,79.39,406.56,79.58,406.08Z" style="fill:gray"></path><path d="M77.32,439.42l-.15,1.07,0,1.32c.53-.18,2.16-.78,2.45-1.51C79.94,439.42,77.32,439.42,77.32,439.42Z" style="fill:gray"></path><path d="M78.19,423.2a5.12,5.12,0,0,0,2.72.82V421.6C79.78,421.88,77.53,422.54,78.19,423.2Z" style="fill:gray"></path><path d="M78.35,401a4.8,4.8,0,0,0,2.56.73v-2.18C80,399.79,77.74,400.4,78.35,401Z" style="fill:gray"></path><path d="M80.73,387.37c-1,.29-2.24.76-1.76,1.24a3.44,3.44,0,0,0,1.81.65Z" style="fill:gray"></path><path d="M80.91,432.94c-1.13.28-3.38.94-2.72,1.6a5,5,0,0,0,2.72.81Z" style="fill:gray"></path><path d="M78.4,392.9v2c.61-.24,1.58-.69,1.79-1.2S79,392.92,78.4,392.9Z" style="fill:gray"></path><path d="M52.56,424.55S48.05,426,41,421.33s3.47-29.1,8-34.9,17.91,22,14.64,28.49S56.38,423.47,52.56,424.55Z" style="fill:#FCD96B"></path><polyline points="48.71 450.21 49.43 418.03 46.31 414.67 49.67 416.59 49.67 410.83 45.35 405.78 49.43 408.91 48.95 404.82 50.15 406.75 50.87 395.22 51.35 412.75 59.28 408.43 51.35 415.15 51.35 418.27 51.35 451.17" style="fill:#263238"></polyline><path d="M50.47,436.29c.2-.51-1.09-.57-1.43-.58l0,1.53C49.45,437.08,50.3,436.71,50.47,436.29Z" style="fill:gray"></path><path d="M51.35,423.3c-.65.16-2,.55-1.6.95a2.94,2.94,0,0,0,1.6.47Z" style="fill:gray"></path><path d="M50.57,427.63c.2-.51-1.34-.51-1.34-.51v0l0,1.35C49.56,428.37,50.41,428,50.57,427.63Z" style="fill:gray"></path><path d="M50.46,421c.16-.38-.66-.48-1.08-.5l0,1.27C49.76,421.57,50.33,421.28,50.46,421Z" style="fill:gray"></path><path d="M49,443.3l-.1.72,0,.88c.35-.12,1.45-.53,1.64-1S49,443.3,49,443.3Z" style="fill:gray"></path><path d="M49.54,432.44a3.46,3.46,0,0,0,1.81.54v-1.62C50.6,431.55,49.09,432,49.54,432.44Z" style="fill:gray"></path><path d="M49.64,417.57a3.16,3.16,0,0,0,1.71.49V416.6C50.75,416.75,49.23,417.16,49.64,417.57Z" style="fill:gray"></path><path d="M51.23,408.43c-.67.19-1.49.51-1.18.83a2.29,2.29,0,0,0,1.22.43Z" style="fill:gray"></path><path d="M51.35,439c-.75.18-2.26.63-1.81,1.07a3.37,3.37,0,0,0,1.81.55Z" style="fill:gray"></path><path d="M49.67,412.14v1.31c.41-.16,1.07-.46,1.2-.8S50,412.15,49.67,412.14Z" style="fill:gray"></path><path d="M121,451.17c.48-4.42-3.11-9.18-7.67-9.4-4.09-.2-8.58,2.55-12,.28-2.78-1.85-2.84-5.81-3.16-9.14s-1.23-6.69-3.4-9.2-5.83-3.94-9-2.79c-6.28,2.31-6.67,12.62-13.09,14.51-4.44,1.32-9.08-2.38-13.64-1.56-5.58,1-8.1,7.18-12.39,10.2-.44.31-2.31,1.66-4.44,3.22-1.79,1.31-3.77,2.76-5.26,3.88Z" style="fill:#FCD96B"></path><path d="M121,451.17c.48-4.42-3.11-9.18-7.67-9.4-4.09-.2-8.58,2.55-12,.28-2.78-1.85-2.84-5.81-3.16-9.14s-1.23-6.69-3.4-9.2-5.83-3.94-9-2.79c-6.28,2.31-6.67,12.62-13.09,14.51-4.44,1.32-9.08-2.38-13.64-1.56-5.58,1-8.1,7.18-12.39,10.2-.44.31-2.31,1.66-4.44,3.22-1.79,1.31-3.77,2.76-5.26,3.88Z" style="fill:#fff;opacity:0.4"></path><line x1="68.88" y1="450.81" x2="65.35" y2="440.51" style="fill:none;stroke:#263238;stroke-linecap:round;stroke-linejoin:round"></line><line x1="81.34" y1="451.08" x2="88.66" y2="431.29" style="fill:none;stroke:#263238;stroke-linecap:round;stroke-linejoin:round"></line><line x1="107.91" y1="451.08" x2="112.24" y2="447.01" style="fill:none;stroke:#263238;stroke-linecap:round;stroke-linejoin:round"></line><line x1="67.91" y1="448.37" x2="70.23" y2="442.13" style="fill:none;stroke:#263238;stroke-linecap:round;stroke-linejoin:round"></line><line x1="67.45" y1="446.84" x2="59.39" y2="444.84" style="fill:none;stroke:#263238;stroke-linecap:round;stroke-linejoin:round"></line><line x1="86.49" y1="437.26" x2="84.33" y2="433.73" style="fill:none;stroke:#263238;stroke-linecap:round;stroke-linejoin:round"></line><line x1="84.33" y1="442.68" x2="92.19" y2="438.34" style="fill:none;stroke:#263238;stroke-linecap:round;stroke-linejoin:round"></line><line x1="81.98" y1="449.56" x2="89.2" y2="447.01" style="fill:none;stroke:#263238;stroke-linecap:round;stroke-linejoin:round"></line><line x1="82.97" y1="446.74" x2="78.36" y2="438.61" style="fill:none;stroke:#263238;stroke-linecap:round;stroke-linejoin:round"></line><path d="M89.36,431.29a.7.7,0,0,1-1.4,0,.7.7,0,0,1,1.4,0Z" style="fill:#263238"></path><path d="M85,433.67a.7.7,0,1,1-.7-.7A.7.7,0,0,1,85,433.67Z" style="fill:#263238"></path><path d="M92.89,438.34a.7.7,0,1,1-.7-.7A.7.7,0,0,1,92.89,438.34Z" style="fill:#263238"></path><path d="M79.06,438.61a.7.7,0,1,1-.7-.7A.7.7,0,0,1,79.06,438.61Z" style="fill:#263238"></path><path d="M90.27,446.9a.7.7,0,1,1-.7-.69A.7.7,0,0,1,90.27,446.9Z" style="fill:#263238"></path><path d="M112.67,447.18a.7.7,0,1,1-.7-.7A.7.7,0,0,1,112.67,447.18Z" style="fill:#263238"></path><path d="M66.05,440.51a.7.7,0,1,1-.7-.7A.7.7,0,0,1,66.05,440.51Z" style="fill:#263238"></path><path d="M70.81,442.15a.7.7,0,1,1-.7-.7A.7.7,0,0,1,70.81,442.15Z" style="fill:#263238"></path><path d="M60.09,444.84a.7.7,0,1,1-.7-.69A.7.7,0,0,1,60.09,444.84Z" style="fill:#263238"></path><path d="M168.15,451.17c.37-3.4-2.4-7.07-5.9-7.24-3.15-.15-6.61,2-9.23.22-2.14-1.43-2.19-4.47-2.43-7A12.55,12.55,0,0,0,148,430c-1.68-1.93-4.49-3-6.89-2.14-4.83,1.78-5.13,9.71-10.07,11.17-3.42,1-7-1.83-10.5-1.2-4.29.77-6.23,5.52-9.53,7.85-.34.24-1.78,1.27-3.42,2.47-1.38,1-2.9,2.13-4,3Z" style="fill:#FCD96B"></path><path d="M168.15,451.17c.37-3.4-2.4-7.07-5.9-7.24-3.15-.15-6.61,2-9.23.22-2.14-1.43-2.19-4.47-2.43-7A12.55,12.55,0,0,0,148,430c-1.68-1.93-4.49-3-6.89-2.14-4.83,1.78-5.13,9.71-10.07,11.17-3.42,1-7-1.83-10.5-1.2-4.29.77-6.23,5.52-9.53,7.85-.34.24-1.78,1.27-3.42,2.47-1.38,1-2.9,2.13-4,3Z" style="fill:#fff;opacity:0.4"></path><line x1="128.04" y1="450.89" x2="125.32" y2="442.97" style="fill:none;stroke:#263238;stroke-linecap:round;stroke-linejoin:round"></line><line x1="137.63" y1="451.1" x2="143.26" y2="435.87" style="fill:none;stroke:#263238;stroke-linecap:round;stroke-linejoin:round"></line><line x1="158.07" y1="451.1" x2="161.41" y2="447.97" style="fill:none;stroke:#263238;stroke-linecap:round;stroke-linejoin:round"></line><line x1="127.29" y1="449.01" x2="129.08" y2="444.22" style="fill:none;stroke:#263238;stroke-linecap:round;stroke-linejoin:round"></line><line x1="126.94" y1="447.84" x2="120.74" y2="446.3" style="fill:none;stroke:#263238;stroke-linecap:round;stroke-linejoin:round"></line><line x1="141.59" y1="440.46" x2="139.93" y2="437.75" style="fill:none;stroke:#263238;stroke-linecap:round;stroke-linejoin:round"></line><line x1="139.93" y1="444.63" x2="145.97" y2="441.3" style="fill:none;stroke:#263238;stroke-linecap:round;stroke-linejoin:round"></line><line x1="138.12" y1="449.93" x2="143.68" y2="447.97" style="fill:none;stroke:#263238;stroke-linecap:round;stroke-linejoin:round"></line><line x1="138.88" y1="447.76" x2="135.34" y2="441.51" style="fill:none;stroke:#263238;stroke-linecap:round;stroke-linejoin:round"></line><path d="M143.8,435.87a.54.54,0,0,1-.54.54.54.54,0,1,1,0-1.07A.54.54,0,0,1,143.8,435.87Z" style="fill:#263238"></path><circle cx="139.89" cy="437.7" r="0.54" style="fill:#263238"></circle><circle cx="145.97" cy="441.3" r="0.54" style="fill:#263238"></circle><circle cx="135.34" cy="441.51" r="0.54" style="fill:#263238"></circle><circle cx="143.96" cy="447.89" r="0.54" style="fill:#263238"></circle><path d="M161.74,448.1a.54.54,0,0,1-.54.54.54.54,0,0,1,0-1.08A.54.54,0,0,1,161.74,448.1Z" style="fill:#263238"></path><path d="M125.86,443a.54.54,0,1,1-.54-.54A.54.54,0,0,1,125.86,443Z" style="fill:#263238"></path><circle cx="128.98" cy="444.23" r="0.54" style="fill:#263238"></circle><circle cx="120.74" cy="446.3" r="0.54" style="fill:#263238"></circle><path d="M431.39,411.43s6.81.71,17.19-8.54-6.5-42-13.59-49.14-25.74,38.44-20.55,47S425.64,411.07,431.39,411.43Z" style="fill:#FCD96B"></path><polyline points="434.93 449.74 433.85 401.7 438.51 396.69 433.49 399.55 433.49 390.95 439.95 383.42 433.85 388.08 434.57 381.99 432.78 384.86 431.7 367.65 430.98 393.82 419.15 387.37 430.98 397.4 430.98 402.06 430.98 451.17" style="fill:#263238"></polyline><path d="M432.3,429c-.3-.76,1.63-.86,2.14-.87l.05,2.29C433.82,430.13,432.56,429.59,432.3,429Z" style="fill:gray"></path><path d="M431,409.57c1,.24,3,.82,2.4,1.41a4.4,4.4,0,0,1-2.4.71Z" style="fill:gray"></path><path d="M432.16,416c-.31-.76,2-.76,2-.76v0l0,2C433.66,417.13,432.4,416.63,432.16,416Z" style="fill:gray"></path><path d="M432.31,406.08c-.23-.57,1-.72,1.62-.76l.05,1.91C433.36,407,432.5,406.56,432.31,406.08Z" style="fill:gray"></path><path d="M434.57,439.42l.15,1.07,0,1.32c-.53-.18-2.16-.78-2.45-1.51C432,439.42,434.57,439.42,434.57,439.42Z" style="fill:gray"></path><path d="M433.7,423.2A5.12,5.12,0,0,1,431,424V421.6C432.11,421.88,434.36,422.54,433.7,423.2Z" style="fill:gray"></path><path d="M433.54,401a4.8,4.8,0,0,1-2.56.73v-2.18C431.89,399.79,434.16,400.4,433.54,401Z" style="fill:gray"></path><path d="M431.16,387.37c1,.29,2.24.76,1.76,1.24a3.44,3.44,0,0,1-1.81.65Z" style="fill:gray"></path><path d="M431,432.94c1.13.28,3.38.94,2.72,1.6a5,5,0,0,1-2.72.81Z" style="fill:gray"></path><path d="M433.49,392.9v2c-.61-.24-1.58-.69-1.79-1.2S432.94,392.92,433.49,392.9Z" style="fill:gray"></path><path d="M461.32,425s4.65.52,11.56-5.51-5.09-27.76-10-32.51-16.9,25.17-13.23,30.84S457.4,424.75,461.32,425Z" style="fill:#FCD96B"></path><polyline points="463.18 450.21 462.46 418.03 465.58 414.67 462.22 416.59 462.22 410.83 466.54 405.78 462.46 408.91 462.94 404.82 461.74 406.75 461.02 395.22 460.54 412.75 452.61 408.43 460.54 415.15 460.54 418.27 460.54 451.17" style="fill:#263238"></polyline><path d="M461.42,436.29c-.2-.51,1.09-.57,1.43-.58l0,1.53C462.44,437.08,461.59,436.71,461.42,436.29Z" style="fill:gray"></path><path d="M460.54,423.3c.65.16,2,.55,1.61.95a3,3,0,0,1-1.61.47Z" style="fill:gray"></path><path d="M461.32,427.63c-.2-.51,1.34-.51,1.34-.51v0l0,1.35C462.33,428.37,461.48,428,461.32,427.63Z" style="fill:gray"></path><path d="M461.43,421c-.16-.38.66-.48,1.08-.5l0,1.27C462.13,421.57,461.56,421.28,461.43,421Z" style="fill:gray"></path><path d="M462.94,443.3l.1.72,0,.88c-.35-.12-1.44-.53-1.64-1S462.94,443.3,462.94,443.3Z" style="fill:gray"></path><path d="M462.35,432.44a3.46,3.46,0,0,1-1.81.54v-1.62C461.29,431.55,462.8,432,462.35,432.44Z" style="fill:gray"></path><path d="M462.25,417.57a3.16,3.16,0,0,1-1.71.49V416.6C461.14,416.75,462.66,417.16,462.25,417.57Z" style="fill:gray"></path><path d="M460.66,408.43c.67.19,1.5.51,1.18.83a2.29,2.29,0,0,1-1.22.43Z" style="fill:gray"></path><path d="M460.54,439c.75.18,2.26.63,1.81,1.07a3.37,3.37,0,0,1-1.81.55Z" style="fill:gray"></path><path d="M462.22,412.14v1.31c-.41-.16-1.06-.46-1.2-.8S461.85,412.15,462.22,412.14Z" style="fill:gray"></path><path d="M399.65,425s4.64.52,11.56-5.51-5.1-27.76-10-32.51-16.9,25.17-13.23,30.84S395.73,424.75,399.65,425Z" style="fill:#FCD96B"></path><polyline points="401.5 450.21 400.79 418.03 403.91 414.67 400.55 416.59 400.55 410.83 404.87 405.78 400.79 408.91 401.26 404.82 400.06 406.75 399.34 395.22 398.86 412.75 390.94 408.43 398.86 415.15 398.86 418.27 398.86 451.17" style="fill:#263238"></polyline><path d="M399.75,436.29c-.21-.51,1.09-.57,1.43-.58l0,1.53C400.76,437.08,399.92,436.71,399.75,436.29Z" style="fill:gray"></path><path d="M398.86,423.3c.66.16,2,.55,1.61.95a3,3,0,0,1-1.61.47Z" style="fill:gray"></path><path d="M399.65,427.63c-.2-.51,1.33-.51,1.33-.51v0l0,1.35C400.65,428.37,399.81,428,399.65,427.63Z" style="fill:gray"></path><path d="M399.75,421c-.15-.38.66-.48,1.09-.5l0,1.27C400.46,421.57,399.88,421.28,399.75,421Z" style="fill:gray"></path><path d="M401.26,443.3l.11.72,0,.88c-.36-.12-1.45-.53-1.64-1S401.26,443.3,401.26,443.3Z" style="fill:gray"></path><path d="M400.68,432.44a3.5,3.5,0,0,1-1.82.54v-1.62C399.62,431.55,401.12,432,400.68,432.44Z" style="fill:gray"></path><path d="M400.57,417.57a3.11,3.11,0,0,1-1.71.49V416.6C399.47,416.75,401,417.16,400.57,417.57Z" style="fill:gray"></path><path d="M399,408.43c.68.19,1.5.51,1.18.83a2.26,2.26,0,0,1-1.21.43Z" style="fill:gray"></path><path d="M398.86,439c.76.18,2.26.63,1.82,1.07a3.41,3.41,0,0,1-1.82.55Z" style="fill:gray"></path><path d="M400.54,412.14v1.31c-.41-.16-1.06-.46-1.2-.8S400.18,412.15,400.54,412.14Z" style="fill:gray"></path><path d="M390.89,451.17c-.48-4.42,3.11-9.18,7.67-9.4,4.09-.2,8.58,2.55,12,.28,2.78-1.85,2.84-5.81,3.16-9.14s1.23-6.69,3.4-9.2,5.83-3.94,8.95-2.79c6.28,2.31,6.67,12.62,13.09,14.51,4.45,1.32,9.08-2.38,13.64-1.56,5.58,1,8.1,7.18,12.39,10.2.44.31,2.31,1.66,4.44,3.22,1.79,1.31,3.77,2.76,5.26,3.88Z" style="fill:#FCD96B"></path><path d="M390.89,451.17c-.48-4.42,3.11-9.18,7.67-9.4,4.09-.2,8.58,2.55,12,.28,2.78-1.85,2.84-5.81,3.16-9.14s1.23-6.69,3.4-9.2,5.83-3.94,8.95-2.79c6.28,2.31,6.67,12.62,13.09,14.51,4.45,1.32,9.08-2.38,13.64-1.56,5.58,1,8.1,7.18,12.39,10.2.44.31,2.31,1.66,4.44,3.22,1.79,1.31,3.77,2.76,5.26,3.88Z" style="fill:#fff;opacity:0.4"></path><line x1="443.01" y1="450.81" x2="446.54" y2="440.51" style="fill:none;stroke:#263238;stroke-linecap:round;stroke-linejoin:round"></line><line x1="430.55" y1="451.08" x2="423.23" y2="431.29" style="fill:none;stroke:#263238;stroke-linecap:round;stroke-linejoin:round"></line><line x1="403.98" y1="451.08" x2="399.65" y2="447.01" style="fill:none;stroke:#263238;stroke-linecap:round;stroke-linejoin:round"></line><line x1="443.99" y1="448.37" x2="441.66" y2="442.13" style="fill:none;stroke:#263238;stroke-linecap:round;stroke-linejoin:round"></line><line x1="444.44" y1="446.84" x2="452.5" y2="444.84" style="fill:none;stroke:#263238;stroke-linecap:round;stroke-linejoin:round"></line><line x1="425.4" y1="437.26" x2="427.56" y2="433.73" style="fill:none;stroke:#263238;stroke-linecap:round;stroke-linejoin:round"></line><line x1="427.56" y1="442.68" x2="419.7" y2="438.34" style="fill:none;stroke:#263238;stroke-linecap:round;stroke-linejoin:round"></line><line x1="429.91" y1="449.56" x2="422.69" y2="447.01" style="fill:none;stroke:#263238;stroke-linecap:round;stroke-linejoin:round"></line><line x1="428.92" y1="446.74" x2="433.53" y2="438.61" style="fill:none;stroke:#263238;stroke-linecap:round;stroke-linejoin:round"></line><path d="M422.53,431.29a.7.7,0,0,0,1.4,0,.7.7,0,0,0-1.4,0Z" style="fill:#263238"></path><path d="M426.92,433.67a.7.7,0,1,0,.7-.7A.7.7,0,0,0,426.92,433.67Z" style="fill:#263238"></path><path d="M419,438.34a.7.7,0,1,0,.69-.7A.69.69,0,0,0,419,438.34Z" style="fill:#263238"></path><path d="M432.83,438.61a.7.7,0,1,0,.7-.7A.7.7,0,0,0,432.83,438.61Z" style="fill:#263238"></path><path d="M421.62,446.9a.7.7,0,1,0,.7-.69A.7.7,0,0,0,421.62,446.9Z" style="fill:#263238"></path><path d="M399.22,447.18a.7.7,0,1,0,.7-.7A.7.7,0,0,0,399.22,447.18Z" style="fill:#263238"></path><path d="M445.84,440.51a.7.7,0,1,0,.7-.7A.7.7,0,0,0,445.84,440.51Z" style="fill:#263238"></path><path d="M441.08,442.15a.7.7,0,1,0,.7-.7A.7.7,0,0,0,441.08,442.15Z" style="fill:#263238"></path><path d="M451.8,444.84a.7.7,0,1,0,.7-.69A.7.7,0,0,0,451.8,444.84Z" style="fill:#263238"></path><path d="M343.74,451.17c-.37-3.4,2.4-7.07,5.91-7.24,3.14-.15,6.6,2,9.22.22,2.14-1.43,2.19-4.47,2.43-7a12.55,12.55,0,0,1,2.62-7.08c1.68-1.93,4.49-3,6.89-2.14,4.83,1.78,5.13,9.71,10.07,11.17,3.42,1,7-1.83,10.5-1.2,4.29.77,6.23,5.52,9.53,7.85.34.24,1.78,1.27,3.42,2.47,1.38,1,2.9,2.13,4.05,3Z" style="fill:#FCD96B"></path><path d="M343.74,451.17c-.37-3.4,2.4-7.07,5.91-7.24,3.14-.15,6.6,2,9.22.22,2.14-1.43,2.19-4.47,2.43-7a12.55,12.55,0,0,1,2.62-7.08c1.68-1.93,4.49-3,6.89-2.14,4.83,1.78,5.13,9.71,10.07,11.17,3.42,1,7-1.83,10.5-1.2,4.29.77,6.23,5.52,9.53,7.85.34.24,1.78,1.27,3.42,2.47,1.38,1,2.9,2.13,4.05,3Z" style="fill:#fff;opacity:0.4"></path><line x1="383.85" y1="450.89" x2="386.57" y2="442.97" style="fill:none;stroke:#263238;stroke-linecap:round;stroke-linejoin:round"></line><line x1="374.26" y1="451.1" x2="368.63" y2="435.87" style="fill:none;stroke:#263238;stroke-linecap:round;stroke-linejoin:round"></line><line x1="353.82" y1="451.1" x2="350.48" y2="447.97" style="fill:none;stroke:#263238;stroke-linecap:round;stroke-linejoin:round"></line><line x1="384.6" y1="449.01" x2="382.81" y2="444.22" style="fill:none;stroke:#263238;stroke-linecap:round;stroke-linejoin:round"></line><line x1="384.95" y1="447.84" x2="391.16" y2="446.3" style="fill:none;stroke:#263238;stroke-linecap:round;stroke-linejoin:round"></line><line x1="370.3" y1="440.46" x2="371.97" y2="437.75" style="fill:none;stroke:#263238;stroke-linecap:round;stroke-linejoin:round"></line><line x1="371.97" y1="444.63" x2="365.92" y2="441.3" style="fill:none;stroke:#263238;stroke-linecap:round;stroke-linejoin:round"></line><line x1="373.77" y1="449.93" x2="368.21" y2="447.97" style="fill:none;stroke:#263238;stroke-linecap:round;stroke-linejoin:round"></line><line x1="373.01" y1="447.76" x2="376.55" y2="441.51" style="fill:none;stroke:#263238;stroke-linecap:round;stroke-linejoin:round"></line><path d="M368.09,435.87a.54.54,0,1,0,.54-.53A.54.54,0,0,0,368.09,435.87Z" style="fill:#263238"></path><path d="M371.47,437.7a.54.54,0,1,0,.54-.54A.54.54,0,0,0,371.47,437.7Z" style="fill:#263238"></path><circle cx="365.92" cy="441.3" r="0.54" style="fill:#263238"></circle><circle cx="376.55" cy="441.51" r="0.54" style="fill:#263238"></circle><path d="M367.39,447.89a.54.54,0,1,0,.54-.54A.54.54,0,0,0,367.39,447.89Z" style="fill:#263238"></path><path d="M350.16,448.1a.54.54,0,1,0,.53-.54A.54.54,0,0,0,350.16,448.1Z" style="fill:#263238"></path><path d="M386,443a.54.54,0,1,0,.54-.54A.54.54,0,0,0,386,443Z" style="fill:#263238"></path><path d="M382.37,444.23a.54.54,0,1,0,.54-.54A.54.54,0,0,0,382.37,444.23Z" style="fill:#263238"></path><path d="M390.62,446.3a.54.54,0,1,0,.54-.54A.54.54,0,0,0,390.62,446.3Z" style="fill:#263238"></path></g><g id="freepik--Floor--inject-17"><line x1="16.44" y1="451.17" x2="486.1" y2="451.17" style="fill:none;stroke:#263238;stroke-linecap:round;stroke-linejoin:round"></line></g></svg>